<svg t="1723702252936" class="icon" viewBox="0 0 1024 1024" version="1.1" xmlns="http://www.w3.org/2000/svg"
  p-id="14322" width="200" height="200">
  <path
    d="M768 469.333333v-40.746666a23.466667 23.466667 0 0 1 6.698667-16.426667 22.656 22.656 0 0 1 32.426666 0l82.176 83.413333c8.96 9.045333 8.96 23.808 0 32.853334l-82.176 83.413333a22.741333 22.741333 0 0 1-16.213333 6.826667 23.082667 23.082667 0 0 1-22.912-23.253334V554.666667h-341.333333a42.666667 42.666667 0 0 1 0-85.333334h341.333333z m128-213.333333a42.666667 42.666667 0 0 1-85.333333 0V213.333333H213.333333v597.333334h597.333334v-42.666667a42.666667 42.666667 0 0 1 85.333333 0v42.666667a85.333333 85.333333 0 0 1-85.333333 85.333333H213.333333a85.333333 85.333333 0 0 1-85.333333-85.333333V213.333333a85.333333 85.333333 0 0 1 85.333333-85.333333h597.333334a85.333333 85.333333 0 0 1 85.333333 85.333333v42.666667z"
    fill="#000000" p-id="14323">
  </path>
</svg>