<svg t="1723794852541" class="icon" viewBox="0 0 1024 1024" version="1.1" xmlns="http://www.w3.org/2000/svg"
  p-id="16388" width="200" height="200">
  <path
    d="M114.751857 1023.99872a31.99996 31.99996 0 0 1-30.911962-40.38395l42.879947-158.271802h-28.671965A98.175877 98.175877 0 0 1 0 727.295091V98.047877C0 44.031945 44.031945 0 98.047877 0h827.902966C979.966775 0 1023.99872 44.031945 1023.99872 98.047877v236.799704a31.99996 31.99996 0 0 1-63.99992 0v-236.799704A34.047957 34.047957 0 0 0 925.950843 63.99992H98.047877A34.111957 34.111957 0 0 0 63.99992 98.047877v629.247214c0 18.815976 15.295981 34.047957 34.047957 34.047957h70.527912a31.80796 31.80796 0 0 1 30.847962 40.38395l-30.591962 112.895859L377.599528 767.231041a31.93596 31.93596 0 0 1 18.495977-5.887993h103.487871a31.99996 31.99996 0 0 1 0 63.99992H406.271492l-273.087658 192.767759a31.359961 31.359961 0 0 1-18.431977 5.887993z"
    p-id="16389"></path>
  <path
    d="M787.199016 839.61495a237.119704 237.119704 0 0 1-236.863704-236.799704A237.119704 237.119704 0 0 1 787.199016 365.951543c130.559837 0 236.799704 106.239867 236.799704 236.863703 0 130.559837-106.239867 236.799704-236.799704 236.799704z m0-409.663487c-95.295881 0-172.863784 77.503903-172.863784 172.863783s77.567903 172.799784 172.863784 172.799784 172.799784-77.503903 172.799784-172.799784-77.503903-172.863784-172.799784-172.863783z"
    p-id="16390"></path>
  <path
    d="M865.726918 665.663168h-98.239877a31.99996 31.99996 0 0 1-31.99996-31.99996V541.055324a31.99996 31.99996 0 0 1 63.99992 0v60.607924h66.239917a31.99996 31.99996 0 0 1 0 63.99992zM582.335272 312.25561H201.663748a31.99996 31.99996 0 0 1 0-63.99992h380.671524a31.99996 31.99996 0 0 1 0 63.99992z"
    p-id="16391"></path>
  <path
    d="M416.831479 534.527332H201.663748a31.99996 31.99996 0 0 1 0-63.99992h215.167731a31.99996 31.99996 0 0 1 0 63.99992z"
    p-id="16392"></path>
</svg>