<svg t="1723794813320" class="icon" viewBox="0 0 1024 1024" version="1.1" xmlns="http://www.w3.org/2000/svg"
  p-id="15359" width="200" height="200">
  <path
    d="M947.2 835.072l-137.728 155.136c-8.192 12.8-20.48 19.968-35.328 19.968-14.848 0-27.648-7.168-35.328-19.968l-137.728-155.136c-8.192-13.312-8.704-29.184-1.024-43.008s20.992-22.016 36.864-22.016h57.856V629.76c0-22.016 17.92-39.936 39.936-39.936H814.08c22.016 0 39.936 17.92 39.936 39.936v140.288h57.856c15.872 0 29.184 8.192 36.864 22.016 7.68 13.824 7.168 29.696-1.536 43.008z m-133.12-25.6v-180.224h-79.872v180.224h-100.352l140.288 160.256 140.288-160.256H814.08z m30.208-690.688h-110.08v-50.176h120.32c10.752 0 20.992 4.096 28.16 11.776 7.68 7.68 11.776 17.92 11.776 28.16v340.48h-50.176V118.784z m-130.048 189.952H273.408c-11.264 0-19.968-9.216-19.968-19.968 0-11.264 9.216-19.968 19.968-19.968h440.832c11.264 0 19.968 9.216 19.968 19.968 0 11.264-9.216 19.968-19.968 19.968zM674.304 168.96c-11.264 0-19.968-9.216-19.968-19.968V28.672c0-11.264 9.216-19.968 19.968-19.968 11.264 0 19.968 9.216 19.968 19.968V148.48c0 11.264-9.216 20.48-19.968 20.48zM393.728 68.608h220.16v50.176h-220.16v-50.176zM333.824 168.96c-11.264 0-19.968-9.216-19.968-19.968V28.672c0-11.264 9.216-19.968 19.968-19.968 11.264 0 19.968 9.216 19.968 19.968V148.48c0 11.264-9.216 20.48-19.968 20.48zM163.328 899.584h209.92v50.176h-220.16c-22.016 0-39.936-17.92-39.936-39.936V108.544c0-10.752 4.096-20.992 11.776-28.16 7.68-7.68 17.92-11.776 28.16-11.776h120.32v50.176H163.328v780.8z m90.112-450.56c0-11.264 9.216-19.968 19.968-19.968h340.48c11.264 0 19.968 9.216 19.968 19.968 0 11.264-9.216 19.968-19.968 19.968H273.408c-10.752 0-19.968-8.704-19.968-19.968z m0 160.256c0-11.264 9.216-19.968 19.968-19.968h180.224c11.264 0 19.968 9.216 19.968 19.968 0 11.264-9.216 19.968-19.968 19.968H273.408c-5.12 0-10.24-2.048-14.336-5.632-3.584-3.584-5.632-8.704-5.632-14.336z"
    fill="" p-id="15360"></path>
</svg>