<?xml version="1.0" standalone="no"?><!DOCTYPE svg PUBLIC "-//W3C//DTD SVG 1.1//EN" "http://www.w3.org/Graphics/SVG/1.1/DTD/svg11.dtd"><svg t="1725525442943" class="icon" viewBox="0 0 1024 1024" version="1.1" xmlns="http://www.w3.org/2000/svg" p-id="5478" xmlns:xlink="http://www.w3.org/1999/xlink" width="200" height="200"><path d="M469.333333 778.666667a10.666667 10.666667 0 0 1 10.666667-10.666667h64a10.666667 10.666667 0 0 1 10.666667 10.666667v113.546666c0 2.453333-0.874667 4.832-2.912 6.176C546.986667 901.536 535.573333 906.666667 512 906.666667s-34.986667-5.130667-39.754667-8.277334c-2.037333-1.354667-2.912-3.733333-2.912-6.176V778.666667z" fill="#884723" p-id="5479"></path><path d="M480 746.666667h64a32 32 0 0 1 32 32v113.546666c0 6.965333-2.56 17.418667-12.501333 23.989334C554.432 922.176 538.656 928 512 928c-26.666667 0-42.421333-5.824-51.498667-11.797333C450.56 909.632 448 899.168 448 892.213333V778.666667a32 32 0 0 1 32-32z m0 21.333333a10.666667 10.666667 0 0 0-10.666667 10.666667v113.546666c0 2.453333 0.874667 4.832 2.912 6.176 4.768 3.146667 16.170667 8.277333 39.754667 8.277334s34.986667-5.130667 39.754667-8.277334c2.037333-1.354667 2.912-3.733333 2.912-6.176V778.666667a10.666667 10.666667 0 0 0-10.666667-10.666667h-64z" fill="#602606" p-id="5480"></path><path d="M480.330667 816a10.666667 10.666667 0 0 1 10.666666 10.666667v63.338666a10.666667 10.666667 0 1 1-21.333333 0V826.666667a10.666667 10.666667 0 0 1 10.666667-10.666667z" fill="#9C5A36" p-id="5481"></path><path d="M234.666667 778.698667c65.866667-49.642667 222.997333-275.818667 293.333333-382.698667C622.688 561.493333 763.008 720.085333 821.333333 778.698667c-238.784 115.84-490.602667 48.277333-586.666666 0z" fill="#6DB859" p-id="5482"></path><path d="M528.661333 374.677333a21.333333 21.333333 0 0 1 17.856 10.730667c93.44 163.317333 232.405333 320.426667 289.941334 378.24a21.333333 21.333333 0 0 1-5.813334 34.24c-246.698667 119.690667-505.792 50.005333-605.557333-0.128a21.333333 21.333333 0 0 1-3.264-36.096c14.357333-10.816 35.2-32.586667 60.245333-62.4 24.704-29.386667 52.426667-65.269333 80.437334-103.146667 56.021333-75.712 112.661333-158.645333 147.669333-211.84a21.333333 21.333333 0 0 1 18.485333-9.6zM234.666667 778.698667c6.485333 3.264 13.685333 6.613333 21.546666 9.984 105.141333 45.152 328.192 94.88 544.544-0.458667A620.117333 620.117333 0 0 0 821.333333 778.698667c-4.714667-4.736-9.973333-10.133333-15.701333-16.138667-62.101333-65.098667-179.402667-201.418667-265.632-346.026667-4.074667-6.826667-8.074667-13.674667-12-20.533333-4.106667 6.24-8.501333 12.874667-13.162667 19.861333-68.789333 103.2-194.282667 282.112-262.645333 347.637334A200.586667 200.586667 0 0 1 234.666667 778.698667z" fill="#3B8327" p-id="5483"></path><path d="M491.381333 841.418667c100.970667 5.866667 216.917333-7.882667 329.952-62.72-58.325333-58.613333-198.645333-217.205333-293.333333-382.698667a4768 4768 0 0 1-44.693333 66.581333C573.834667 602.592 685.568 728.021333 736 778.709333c-82.293333 39.925333-166.133333 58.069333-244.618667 62.72z" fill="#58A245" p-id="5484"></path><path d="M693.813333 764.874667c0 5.856-5.034667 10.602667-11.232 10.602666-6.186667 0-11.221333-4.746667-11.221333-10.602666 0-5.866667 5.024-10.602667 11.221333-10.602667 6.197333 0 11.232 4.746667 11.232 10.602667zM664.437333 739.456c0 3.573333-3.050667 6.453333-6.826666 6.453333-3.776 0-6.826667-2.88-6.826667-6.453333 0-3.562667 3.050667-6.453333 6.826667-6.453333 3.765333 0 6.826667 2.890667 6.826666 6.453333zM575.914667 760.725333c0 3.562667-3.061333 6.453333-6.826667 6.453334-3.786667 0-6.837333-2.890667-6.837333-6.453334 0-3.562667 3.050667-6.453333 6.826666-6.453333 3.776 0 6.826667 2.88 6.826667 6.453333zM525.653333 810.912c0 3.573333-3.050667 6.453333-6.826666 6.453333-3.765333 0-6.826667-2.88-6.826667-6.453333 0-3.562667 3.061333-6.453333 6.826667-6.453333 3.776 0 6.826667 2.890667 6.826666 6.453333zM630.186667 764.874667c0 5.856-5.013333 10.602667-11.221334 10.602666-6.186667 0-11.221333-4.746667-11.221333-10.602666 0-5.866667 5.024-10.602667 11.221333-10.602667 6.208 0 11.232 4.746667 11.232 10.602667zM591.530667 810.912c0 5.866667-5.024 10.602667-11.232 10.602667-6.186667 0-11.221333-4.746667-11.221334-10.602667 0-5.856 5.024-10.602667 11.221334-10.602667 6.208 0 11.232 4.746667 11.232 10.602667zM747.584 733.013333c0 3.882667-3.328 7.029333-7.445333 7.029334-4.106667 0-7.445333-3.157333-7.445334-7.04 0-3.882667 3.338667-7.04 7.445334-7.04 4.117333 0 7.445333 3.157333 7.445333 7.04zM716.586667 708.64c0 8.874667-7.616 16.064-17.002667 16.064-9.386667 0-17.002667-7.189333-17.002667-16.064 0-8.864 7.616-16.053333 17.002667-16.053333 9.386667 0 17.002667 7.189333 17.002667 16.053333zM761.92 768.266667c0 8.874667-7.616 16.064-17.002667 16.064-9.386667 0-17.002667-7.189333-17.002666-16.064s7.616-16.064 17.002666-16.064c9.386667 0 17.002667 7.189333 17.002667 16.064zM667.776 794.848c0 8.874667-7.605333 16.064-17.002667 16.064-9.386667 0-16.992-7.189333-16.992-16.053333 0-8.874667 7.605333-16.064 16.992-16.064s17.002667 7.189333 17.002667 16.053333z" fill="#458634" p-id="5485"></path><path d="M416.874667 597.184a10.666667 10.666667 0 0 1 4.608 14.357333c-39.061333 75.957333-99.221333 145.28-124.608 170.666667a10.666667 10.666667 0 0 1-15.082667-15.082667c24.394667-24.394667 82.986667-91.957333 120.725333-165.333333a10.666667 10.666667 0 0 1 14.357334-4.608z" fill="#7BD264" p-id="5486"></path><path d="M281.333333 592.064c52.394667-39.264 177.386667-218.186667 233.333334-302.730667 75.317333 130.912 186.944 256.373333 233.333333 302.730667-189.941333 91.637333-390.250667 38.186667-466.666667 0z" fill="#72CC52" p-id="5487"></path><path d="M515.328 268.010667a21.333333 21.333333 0 0 1 17.834667 10.688c74.069333 128.736 184.32 252.704 229.92 298.282666a21.333333 21.333333 0 0 1-5.813334 34.304c-197.824 95.434667-405.376 39.893333-485.472-0.138666a21.333333 21.333333 0 0 1-3.264-36.149334c10.986667-8.234667 27.285333-25.109333 47.2-48.682666 19.562667-23.146667 41.557333-51.445333 63.818667-81.365334 44.501333-59.818667 89.514667-125.354667 117.333333-167.392a21.333333 21.333333 0 0 1 18.453334-9.546666z m-233.994667 324.053333c6.389333 3.2 13.642667 6.496 21.685334 9.813333 84.661333 34.858667 256.597333 71.168 424.277333-0.405333 6.912-2.944 13.813333-6.08 20.704-9.408a896.213333 896.213333 0 0 1-15.722667-16.149333c-49.536-52.085333-138.698667-155.786667-205.546666-266.176a1054.112 1054.112 0 0 1-12.064-20.405334c-4.053333 6.122667-8.458667 12.736-13.184 19.754667-54.090667 80.469333-148.661333 214.229333-202.794667 267.637333-6.4 6.314667-12.224 11.498667-17.354667 15.338667z" fill="#3B8327" p-id="5488"></path><path d="M388.512 628.192c96.522667 21.418667 230.4 26.154667 359.488-36.128-46.4-46.357333-158.016-171.818667-233.333333-302.730667a3673.205333 3673.205333 0 0 1-30.005334 44.565334C556.373333 443.626667 644.192 541.632 684 581.408c-102.506667 49.461333-208.042667 56.661333-295.488 46.794667z" fill="#5DA744" p-id="5489"></path><path d="M631.637333 574.421333c0 4.778667-4.096 8.64-9.152 8.64-5.066667 0-9.162667-3.861333-9.162666-8.64 0-4.778667 4.096-8.650667 9.162666-8.650666 5.056 0 9.152 3.872 9.152 8.64zM607.68 553.685333c0 2.901333-2.496 5.258667-5.578667 5.258667-3.072 0-5.568-2.346667-5.568-5.258667s2.496-5.269333 5.568-5.269333c3.082667 0 5.578667 2.357333 5.578667 5.269333zM535.445333 571.029333c0 2.912-2.496 5.269333-5.568 5.269334-3.082667 0-5.578667-2.357333-5.578666-5.269334 0-2.901333 2.496-5.258667 5.578666-5.258666 3.072 0 5.568 2.346667 5.568 5.258666zM494.453333 611.978667c0 2.912-2.496 5.269333-5.578666 5.269333-3.072 0-5.568-2.357333-5.568-5.269333 0-2.901333 2.496-5.258667 5.568-5.258667 3.082667 0 5.578667 2.346667 5.578666 5.258667zM579.733333 574.421333c0 4.778667-4.096 8.64-9.152 8.64s-9.162667-3.861333-9.162666-8.64c0-4.778667 4.106667-8.650667 9.162666-8.650666s9.152 3.872 9.152 8.64zM548.192 611.978667c0 4.778667-4.106667 8.650667-9.162667 8.650666s-9.152-3.872-9.152-8.64c0-4.789333 4.096-8.661333 9.152-8.661333s9.162667 3.872 9.162667 8.650667zM675.52 548.416c0 3.168-2.730667 5.738667-6.08 5.738667-3.36 0-6.08-2.56-6.08-5.738667 0-3.168 2.72-5.738667 6.08-5.738667 3.349333 0 6.08 2.570667 6.08 5.738667zM650.218667 528.533333c0 7.253333-6.208 13.12-13.866667 13.12-7.658667 0-13.866667-5.866667-13.866667-13.12 0-7.232 6.208-13.098667 13.866667-13.098666 7.658667 0 13.866667 5.866667 13.866667 13.109333zM687.210667 577.184c0 7.242667-6.218667 13.109333-13.866667 13.109333-7.669333 0-13.866667-5.866667-13.866667-13.109333 0-7.232 6.197333-13.098667 13.866667-13.098667 7.658667 0 13.866667 5.866667 13.866667 13.098667zM610.4 598.88c0 7.232-6.208 13.098667-13.866667 13.098667-7.658667 0-13.866667-5.866667-13.866666-13.098667 0-7.242667 6.197333-13.109333 13.866666-13.109333 7.658667 0 13.866667 5.866667 13.866667 13.109333z" fill="#4A9736" p-id="5490"></path><path d="M466.08 411.285333a10.666667 10.666667 0 0 1 4.608 14.368c-39.072 75.946667-99.232 145.28-124.618667 170.666667a10.666667 10.666667 0 1 1-15.082666-15.093333c24.394667-24.394667 82.986667-91.946667 120.725333-165.333334a10.666667 10.666667 0 0 1 14.368-4.608z" fill="#8BF26F" p-id="5491"></path><path d="M328 392.672c42.666667-32 144.448-177.781333 190.005333-246.677333 61.333333 106.666667 152.213333 208.896 189.994667 246.677333-154.666667 74.666667-317.781333 31.104-380 0z" fill="#82E360" p-id="5492"></path><path d="M518.666667 124.672a21.333333 21.333333 0 0 1 17.824 10.698667c60.085333 104.490667 149.610667 205.226667 186.592 242.208a21.333333 21.333333 0 0 1-5.802667 34.304c-162.56 78.464-332.906667 32.821333-398.826667-0.138667a21.333333 21.333333 0 0 1-3.253333-36.149333c8.554667-6.4 21.568-19.850667 37.781333-39.04 15.861333-18.784 33.706667-41.770667 51.818667-66.112 36.181333-48.672 72.789333-102.005333 95.402667-136.213334a21.333333 21.333333 0 0 1 18.453333-9.557333zM328 392.672c6.261333 3.125333 13.546667 6.389333 21.76 9.632 69.578667 27.605333 204.821333 54.677333 337.461333-0.32 6.933333-2.88 13.866667-5.973333 20.778667-9.312a764.661333 764.661333 0 0 1-15.68-16.202667c-40.245333-42.730667-109.333333-123.658667-162.24-210.112a872.554667 872.554667 0 0 1-12.085333-20.362666 2706.773333 2706.773333 0 0 1-13.173334 19.744c-43.413333 64.405333-116.053333 166.954667-159.722666 211.445333-6.378667 6.506667-12.138667 11.765333-17.098667 15.488z" fill="#3B8327" p-id="5493"></path><path d="M381.76 413.376c78.976 23.754667 205.194667 37.728 326.24-20.704-37.781333-37.781333-128.672-140.010667-190.005333-246.677333-5.546667 8.394667-11.925333 17.92-18.933334 28.245333 59.093333 91.84 133.12 174.613333 166.272 207.754667-101.098667 48.810667-205.802667 47.104-283.584 31.381333z" fill="#70CA4F" p-id="5494"></path><path d="M628.117333 377.813333c0 3.552-3.050667 6.432-6.816 6.432-3.754667 0-6.805333-2.88-6.805333-6.432 0-3.552 3.04-6.432 6.805333-6.432 3.765333 0 6.816 2.88 6.816 6.432zM610.293333 362.389333a4.032 4.032 0 0 1-4.149333 3.925334 4.032 4.032 0 0 1-4.138667-3.925334c0-2.154667 1.856-3.914667 4.138667-3.914666 2.293333 0 4.149333 1.76 4.149333 3.914666zM556.586667 375.296a4.032 4.032 0 0 1-4.16 3.914667 4.032 4.032 0 0 1-4.138667-3.914667c0-2.165333 1.856-3.914667 4.149333-3.914667 2.282667 0 4.138667 1.749333 4.138667 3.914667zM526.090667 405.749333a4.032 4.032 0 0 1-4.149334 3.914667 4.032 4.032 0 0 1-4.138666-3.914667c0-2.165333 1.856-3.914667 4.138666-3.914666 2.293333 0 4.149333 1.749333 4.149334 3.914666zM589.514667 377.813333c0 3.552-3.050667 6.432-6.816 6.432-3.754667 0-6.805333-2.88-6.805334-6.432 0-3.552 3.050667-6.432 6.816-6.432 3.754667 0 6.805333 2.88 6.805334 6.432zM566.058667 405.749333c0 3.552-3.050667 6.432-6.816 6.432-3.765333 0-6.805333-2.88-6.805334-6.432 0-3.552 3.04-6.432 6.805334-6.432 3.765333 0 6.816 2.88 6.816 6.432zM660.736 358.474667c0 2.357333-2.026667 4.266667-4.512 4.266666a4.394667 4.394667 0 0 1-4.522667-4.266666c0-2.346667 2.026667-4.266667 4.522667-4.266667 2.496 0 4.512 1.92 4.512 4.266667zM641.930667 343.690667c0 5.386667-4.618667 9.749333-10.314667 9.749333s-10.314667-4.362667-10.314667-9.738667c0-5.386667 4.618667-9.749333 10.314667-9.749333s10.314667 4.362667 10.314667 9.738667zM669.44 379.872c0 5.386667-4.618667 9.749333-10.314667 9.749333s-10.314667-4.373333-10.314666-9.749333c0-5.386667 4.618667-9.749333 10.314666-9.749333s10.314667 4.373333 10.314667 9.749333zM612.32 396c0 5.386667-4.618667 9.749333-10.314667 9.749333s-10.314667-4.373333-10.314666-9.749333 4.618667-9.738667 10.314666-9.738667 10.314667 4.362667 10.314667 9.738667z" fill="#5CA848" p-id="5495"></path><path d="M512.106667 200.618667a10.666667 10.666667 0 0 1 4.618666 14.357333c-39.072 75.957333-99.232 145.28-124.618666 170.666667a10.666667 10.666667 0 0 1-15.082667-15.082667c24.394667-24.394667 82.986667-91.957333 120.725333-165.333333a10.666667 10.666667 0 0 1 14.368-4.608z" fill="#C4FFB0" p-id="5496"></path><path d="M641.717333 412.181333a35.434667 35.434667 0 1 1-70.869333 0 35.434667 35.434667 0 0 1 70.869333 0z" fill="#ED3333" p-id="5497"></path><path d="M663.050667 412.181333a56.768 56.768 0 1 1-113.536 0 56.768 56.768 0 0 1 113.536 0z m-56.768 35.434667a35.434667 35.434667 0 1 0 0-70.869333 35.434667 35.434667 0 0 0 0 70.869333z" fill="#9D0C0C" p-id="5498"></path><path d="M451.584 338.72a27.434667 27.434667 0 1 1-54.869333 0 27.434667 27.434667 0 0 1 54.869333 0z" fill="#ED3333" p-id="5499"></path><path d="M472.917333 338.72a48.768 48.768 0 1 1-97.536 0 48.768 48.768 0 0 1 97.536 0z m-48.768 27.434667a27.434667 27.434667 0 1 0 0-54.869334 27.434667 27.434667 0 0 0 0 54.869334z" fill="#9D0C0C" p-id="5500"></path><path d="M432.149333 515.434667a35.434667 35.434667 0 1 1-70.88 0 35.434667 35.434667 0 0 1 70.88 0z" fill="#ED3333" p-id="5501"></path><path d="M453.482667 515.434667a56.768 56.768 0 1 1-113.546667 0 56.768 56.768 0 0 1 113.546667 0z m-56.778667 35.434666a35.434667 35.434667 0 1 0 0-70.869333 35.434667 35.434667 0 0 0 0 70.88z" fill="#9D0C0C" p-id="5502"></path><path d="M709.12 619.338667a43.029333 43.029333 0 1 1-86.069333 0 43.029333 43.029333 0 0 1 86.069333 0z" fill="#ED3333" p-id="5503"></path><path d="M730.453333 619.338667a64.362667 64.362667 0 1 1-128.736 0 64.362667 64.362667 0 0 1 128.736 0z m-64.373333 43.029333a43.029333 43.029333 0 1 0 0-86.069333 43.029333 43.029333 0 0 0 0 86.069333z" fill="#9D0C0C" p-id="5504"></path><path d="M576.405333 775.210667a35.434667 35.434667 0 1 1-70.869333 0 35.434667 35.434667 0 0 1 70.869333 0z" fill="#ED3333" p-id="5505"></path><path d="M597.738667 775.210667a56.768 56.768 0 1 1-113.536 0 56.768 56.768 0 0 1 113.536 0z m-56.768 35.434666a35.434667 35.434667 0 1 0 0-70.869333 35.434667 35.434667 0 0 0 0 70.869333z" fill="#9D0C0C" p-id="5506"></path><path d="M352.213333 714.997333a35.434667 35.434667 0 1 1-70.88 0 35.434667 35.434667 0 0 1 70.88 0z" fill="#ED3333" p-id="5507"></path><path d="M373.546667 714.997333a56.768 56.768 0 1 1-113.546667 0 56.768 56.768 0 0 1 113.546667 0z m-56.778667 35.434667a35.434667 35.434667 0 1 0 0-70.869333 35.434667 35.434667 0 0 0 0 70.869333z" fill="#9D0C0C" p-id="5508"></path><path d="M587.616 244.085333a25.312 25.312 0 1 1-50.624 0 25.312 25.312 0 0 1 50.624 0z" fill="#ED3333" p-id="5509"></path><path d="M608.949333 244.085333a46.645333 46.645333 0 1 1-93.290666 0 46.645333 46.645333 0 0 1 93.290666 0z m-46.645333 25.312a25.312 25.312 0 1 0 0-50.624 25.312 25.312 0 0 0 0 50.624z" fill="#9D0C0C" p-id="5510"></path><path d="M606.282667 386.805333a12.138667 12.138667 0 1 1-24.288 0 12.138667 12.138667 0 0 1 24.288 0zM424.149333 322.133333a12.138667 12.138667 0 1 1-24.288 0 12.138667 12.138667 0 0 1 24.288 0zM566.816 225.472a12.138667 12.138667 0 1 1-24.288 0 12.138667 12.138667 0 0 1 24.288 0zM396.704 492.629333a12.138667 12.138667 0 1 1-24.277333 0 12.138667 12.138667 0 0 1 24.277333 0zM666.08 593.002667a15.669333 15.669333 0 1 1-31.328 0 15.669333 15.669333 0 0 1 31.328 0zM540.970667 769.194667a12.138667 12.138667 0 1 1-24.288 0 12.138667 12.138667 0 0 1 24.288 0zM312.298667 685.194667a12.138667 12.138667 0 1 1-24.277334 0 12.138667 12.138667 0 0 1 24.277334 0z" fill="#FF8989" p-id="5511"></path><path d="M469.376 102.154667l31.84-6.282667 9.621333-16.064 9.632-16.064 18.912 32.330667 31.776 6.613333-25.589333 25.653333 6.186667 32.266667-31.712-16.288-31.893334 15.946667 6.528-32.192-25.301333-25.92z" fill="#FFE24B" p-id="5512"></path><path d="M501.216 95.872l19.253333-32.128 18.912 32.330667 31.776 6.613333-25.589333 25.653333 6.186667 32.266667-31.712-16.288-31.893334 15.946667 6.528-32.192-25.301333-25.92 31.84-6.282667z m-18.112 35.616l-21.365333-21.888a10.666667 10.666667 0 0 1 5.568-17.92l27.2-5.354667 16.810666-28.064a10.666667 10.666667 0 0 1 18.357334 0.106667l16.522666 28.234667 27.125334 5.653333a10.666667 10.666667 0 0 1 5.386666 17.973333l-21.6 21.653334 5.12 26.72a10.666667 10.666667 0 0 1-15.338666 11.498666l-26.912-13.824-27.061334 13.536a10.666667 10.666667 0 0 1-15.221333-11.669333l5.408-26.666667z" fill="#D97D11" p-id="5513"></path></svg>